<svg xmlns="http://www.w3.org/2000/svg" viewBox="0 0 520 5200"><defs><linearGradient id="stem" x1="0" y1="0" x2="1" y2="1"><stop offset="0" stop-color="#8f6b4b"/><stop offset=".45" stop-color="#6b533d"/><stop offset="1" stop-color="#3f5336"/></linearGradient><linearGradient id="leaf" x1="0" y1="0" x2="1" y2="1"><stop offset="0" stop-color="#91a06f"/><stop offset=".55" stop-color="#5e7048"/><stop offset="1" stop-color="#34452d"/></linearGradient><filter id="shadow"><feDropShadow dx="0" dy="2" stdDeviation="2" flood-color="#211a14" flood-opacity=".22"/></filter></defs><g filter="url(#shadow)"><path d="M82 10 C34 280 148 500 72 790 C15 1010 150 1240 110 1510 C78 1730 218 1960 176 2220 C138 2470 278 2700 318 2960 C352 3180 270 3400 340 3630 C400 3830 448 4040 424 4250 C402 4460 460 4700 492 5190" fill="none" stroke="url(#stem)" stroke-width="7" stroke-linecap="round"/><path d="M80 12 C42 275 145 495 80 786 C28 1008 156 1235 120 1506 C90 1728 224 1958 188 2217 C152 2464 289 2698 327 2958 C360 3180 282 3398 349 3628 C408 3830 456 4038 432 4248 C410 4460 468 4700 500 5188" fill="none" stroke="#b59b78" stroke-width="1.8" opacity=".62" stroke-linecap="round"/><g fill="url(#leaf)" stroke="#3e4e32" stroke-width="1.0"><path d="M120 520 C74 500 48 468 52 427 C91 429 119 457 120 520Z"/><path d="M132 548 C174 536 204 510 207 470 C169 468 141 493 132 548Z"/><path d="M70 1010 C28 991 5 958 10 920 C48 921 72 946 70 1010Z"/><path d="M89 1040 C130 1028 156 1002 158 963 C121 962 96 988 89 1040Z"/><path d="M156 1510 C112 1497 85 1467 87 1429 C126 1431 153 1458 156 1510Z"/><path d="M174 1542 C216 1532 244 1505 246 1465 C207 1465 182 1491 174 1542Z"/><path d="M210 2140 C166 2126 140 2097 142 2058 C181 2061 207 2086 210 2140Z"/><path d="M229 2170 C271 2158 297 2130 299 2090 C260 2090 236 2117 229 2170Z"/><path d="M312 2790 C268 2775 242 2746 244 2707 C283 2710 309 2736 312 2790Z"/><path d="M330 2820 C372 2808 399 2780 401 2740 C362 2740 337 2767 330 2820Z"/><path d="M330 3440 C287 3426 260 3397 262 3358 C301 3361 327 3387 330 3440Z"/><path d="M350 3470 C391 3458 418 3430 420 3390 C381 3390 357 3417 350 3470Z"/><path d="M414 4040 C372 4026 346 3997 348 3958 C387 3961 412 3987 414 4040Z"/><path d="M432 4070 C474 4058 501 4030 503 3990 C464 3990 439 4017 432 4070Z"/><path d="M438 4630 C397 4616 371 4587 373 4548 C412 4551 437 4577 438 4630Z"/><path d="M456 4660 C497 4648 524 4620 526 4580 C487 4580 463 4607 456 4660Z"/></g><g fill="none" stroke="#aab48c" stroke-width="0.75" opacity=".45"><path d="M55 433L112 500M205 474L141 530M13 925L63 984M156 969L101 1028M90 1436L149 1495M244 1470L184 1530M145 2065L203 2124M297 2097L238 2160M246 2713L305 2774M399 2746L340 2808M264 3364L323 3423M418 3396L359 3458M350 3964L407 4023M501 3996L443 4058M375 4554L432 4613M523 4586L465 4648"/></g></g></svg>
